<?xml version="1.0" encoding="iso-8859-1"?>
<!-- Generator: Adobe Illustrator 19.0.0, SVG Export Plug-In . SVG Version: 6.00 Build 0)  -->
<svg version="1.1" id="Capa_1" xmlns="http://www.w3.org/2000/svg" xmlns:xlink="http://www.w3.org/1999/xlink" x="0px" y="0px"
	 viewBox="0 0 496 496" style="enable-background:new 0 0 496 496;" xml:space="preserve">
<path style="fill:#FEA82F;" d="M456,336v-51.672c0-113.336-88.864-209.144-202.152-212.248C136.304,68.856,40,163.184,40,280v56H8
	v32l25.392,11.112C101.064,408.712,174.136,424,248,424l0,0c73.864,0,146.936-15.288,214.608-44.888L488,368v-32H456z"/>
<g>
	<path style="fill:#FCD770;" d="M288,80l0.264-3.984c-11.168-2.24-22.656-3.616-34.424-3.936
		c-15.824-0.432-31.24,0.952-46.112,3.872L208,80l16,192h48L288,80z"/>
	<path style="fill:#FCD770;" d="M392,238.792c0-31.888,4.104-63.552,12.16-94.232c0.024-0.04,0.04-0.08,0.064-0.12
		c-11.216-13.064-23.992-24.72-38.024-34.688c-14.624,36.088-22.2,74.72-22.2,113.8V272h48V238.792z"/>
	<path style="fill:#FCD770;" d="M152,272v-48.448c0-39.328-7.656-78.2-22.456-114.48c-14.056,9.76-26.848,21.2-38.088,34.048
		C99.76,174.248,104,206.408,104,238.792V272H152z"/>
</g>
<rect x="40" y="312" style="fill:#FF8031;" width="416" height="24"/>
<path d="M464,328v-43.672c0-118.264-94.176-217.072-209.936-220.248c-58.968-1.576-114.528,20.08-156.68,61.096
	C55.216,166.192,32,221.176,32,280v48H0v45.232l30.184,13.2C99.28,416.672,172.56,432,248,432s148.72-15.328,217.816-45.56
	L496,373.232V328H464z M395.392,147C387.912,177.024,384,207.864,384,238.792V264h-32v-40.448c0-34.568,6.016-68.408,17.792-100.768
	C379,130.088,387.544,138.216,395.392,147z M253.624,80.08c8.864,0.24,17.576,1.152,26.128,2.568L264.64,264h-33.28L216.232,82.496
	C228.456,80.56,240.96,79.704,253.624,80.08z M125.792,121.696c12.04,32.68,18.208,66.88,18.208,101.856V264h-32v-25.208
	c0-31.528-4.048-62.928-11.824-93.464c2.704-2.952,5.464-5.864,8.36-8.68C114.04,131.288,119.816,126.328,125.792,121.696z
	 M480,362.768l-20.592,9.016C392.344,401.128,321.216,416,248,416s-144.344-14.872-211.408-44.216L16,362.768V344h24h8h352v-16H48
	v-48c0-43.616,13.824-84.936,39.36-119.176c5.624,25.6,8.64,51.736,8.64,77.968V280h64v-56.448c0-38.336-7.04-75.792-20.752-111.48
	c18.824-12.264,39.464-21.152,61.2-26.424L216.64,280h62.72l16.168-194.064c21.888,5.544,42.4,14.824,60.848,27.136
	C342.912,148.472,336,185.584,336,223.552V280h64v-41.208c0-25.536,2.848-51.008,8.192-75.984
	C433.144,196.944,448,239.088,448,284.328V328h-32v16h32h8h24V362.768z"/>
<g>
</g>
<g>
</g>
<g>
</g>
<g>
</g>
<g>
</g>
<g>
</g>
<g>
</g>
<g>
</g>
<g>
</g>
<g>
</g>
<g>
</g>
<g>
</g>
<g>
</g>
<g>
</g>
<g>
</g>
</svg>
