<svg xmlns="http://www.w3.org/2000/svg" width="1000" height="1000"><path d="M-15,-108L66,-114L139,-122Z" fill="#e8f6e1" stroke="#e8f6e1" stroke-width="1.51"/><path d="M139,-122L180,-121L295,-123Z" fill="#def2d8" stroke="#def2d8" stroke-width="1.51"/><path d="M98,1120L-23,1124L645,1120Z" fill="#7490a3" stroke="#7490a3" stroke-width="1.51"/><path d="M437,1107L254,1112L645,1120Z" fill="#5889a4" stroke="#5889a4" stroke-width="1.51"/><path d="M254,1112L98,1120L645,1120Z" fill="#6a8d9f" stroke="#6a8d9f" stroke-width="1.51"/><path d="M438,-120L566,-108L699,-110Z" fill="#b3dedc" stroke="#b3dedc" stroke-width="1.51"/><path d="M890,1078L723,1094L1029,1119Z" fill="#1763a1" stroke="#1763a1" stroke-width="1.51"/><path d="M723,1094L645,1120L1029,1119Z" fill="#216aa4" stroke="#216aa4" stroke-width="1.51"/><path d="M295,-123L438,-120L1075,-122Z" fill="#b1dbde" stroke="#b1dbde" stroke-width="1.51"/><path d="M699,-110L798,-109L1075,-122Z" fill="#9bbdd4" stroke="#9bbdd4" stroke-width="1.51"/><path d="M438,-120L699,-110L1075,-122Z" fill="#a4cddb" stroke="#a4cddb" stroke-width="1.51"/><path d="M798,-109L895,-109L1075,-122Z" fill="#98b5d0" stroke="#98b5d0" stroke-width="1.51"/><path d="M1043,220L1075,288L1082,193Z" fill="#7798ab" stroke="#7798ab" stroke-width="1.51"/><path d="M1048,130L1082,193L1085,101Z" fill="#7f9ab0" stroke="#7f9ab0" stroke-width="1.51"/><path d="M1018,724L1090,747L1109,633Z" fill="#2e7baf" stroke="#2e7baf" stroke-width="1.51"/><path d="M1007,629L1018,724L1109,633Z" fill="#3483b6" stroke="#3483b6" stroke-width="1.51"/><path d="M1039,967L1019,1030L1110,1040Z" fill="#0a599d" stroke="#0a599d" stroke-width="1.51"/><path d="M1083,922L1039,967L1110,1040Z" fill="#0a5b9e" stroke="#0a5b9e" stroke-width="1.51"/><path d="M1031,577L1109,633L1115,550Z" fill="#4183ad" stroke="#4183ad" stroke-width="1.51"/><path d="M1074,526L1031,577L1115,550Z" fill="#4888ae" stroke="#4888ae" stroke-width="1.51"/><path d="M1031,857L1083,922L1116,847Z" fill="#1867a4" stroke="#1867a4" stroke-width="1.51"/><path d="M1083,922L1110,1040L1116,847Z" fill="#115c9d" stroke="#115c9d" stroke-width="1.51"/><path d="M998,-39L1072,56L1116,-41Z" fill="#88a0bb" stroke="#88a0bb" stroke-width="1.51"/><path d="M1075,-122L1038,-96L1116,-41Z" fill="#8d9fbd" stroke="#8d9fbd" stroke-width="1.51"/><path d="M1072,56L1085,101L1116,-41Z" fill="#849ab4" stroke="#849ab4" stroke-width="1.51"/><path d="M1085,101L1082,193L1116,-41Z" fill="#8199b0" stroke="#8199b0" stroke-width="1.51"/><path d="M1031,857L1116,847L1117,798Z" fill="#1d69a5" stroke="#1d69a5" stroke-width="1.51"/><path d="M1009,817L1031,857L1117,798Z" fill="#1e6faa" stroke="#1e6faa" stroke-width="1.51"/><path d="M1109,633L1090,747L1117,798Z" fill="#2b74aa" stroke="#2b74aa" stroke-width="1.51"/><path d="M1115,550L1109,633L1117,798Z" fill="#337aad" stroke="#337aad" stroke-width="1.51"/><path d="M1030,504L1074,526L1118,429Z" fill="#528cab" stroke="#528cab" stroke-width="1.51"/><path d="M1088,370L1001,446L1118,429Z" fill="#5f90a8" stroke="#5f90a8" stroke-width="1.51"/><path d="M1001,446L1030,504L1118,429Z" fill="#5890ad" stroke="#5890ad" stroke-width="1.51"/><path d="M1075,288L1088,370L1118,429Z" fill="#668fa3" stroke="#668fa3" stroke-width="1.51"/><path d="M1082,193L1075,288L1118,429Z" fill="#6e92a4" stroke="#6e92a4" stroke-width="1.51"/><path d="M1074,526L1115,550L1118,429Z" fill="#4f88a7" stroke="#4f88a7" stroke-width="1.51"/><path d="M1116,-41L1082,193L1118,429Z" fill="#7a94a8" stroke="#7a94a8" stroke-width="1.51"/><path d="M1115,550L1117,798L1118,429Z" fill="#407ea9" stroke="#407ea9" stroke-width="1.51"/><path d="M954,1084L890,1078L1029,1119Z" fill="#0d5c9d" stroke="#0d5c9d" stroke-width="1.51"/><path d="M1075,288L1035,338L1088,370Z" fill="#6c95a6" stroke="#6c95a6" stroke-width="1.51"/><path d="M1090,747L1009,817L1117,798Z" fill="#2371aa" stroke="#2371aa" stroke-width="1.51"/><path d="M895,-109L1038,-96L1075,-122Z" fill="#93aac9" stroke="#93aac9" stroke-width="1.51"/><path d="M1038,-96L998,-39L1116,-41Z" fill="#8da2bf" stroke="#8da2bf" stroke-width="1.51"/><path d="M895,-109L960,-83L1038,-96Z" fill="#94afcd" stroke="#94afcd" stroke-width="1.51"/><path d="M1031,577L1007,629L1109,633Z" fill="#3e86b4" stroke="#3e86b4" stroke-width="1.51"/><path d="M1019,1030L1079,1073L1110,1040Z" fill="#0a5396" stroke="#0a5396" stroke-width="1.51"/><path d="M1043,220L1017,270L1075,288Z" fill="#769aad" stroke="#769aad" stroke-width="1.51"/><path d="M1035,338L1001,446L1088,370Z" fill="#6695ab" stroke="#6695ab" stroke-width="1.51"/><path d="M1018,724L1009,817L1090,747Z" fill="#2778b0" stroke="#2778b0" stroke-width="1.51"/><path d="M998,-39L1007,72L1072,56Z" fill="#88a4bd" stroke="#88a4bd" stroke-width="1.51"/><path d="M1048,130L1043,220L1082,193Z" fill="#7e9caf" stroke="#7e9caf" stroke-width="1.51"/><path d="M1072,56L1007,72L1085,101Z" fill="#849eb6" stroke="#849eb6" stroke-width="1.51"/><path d="M1007,72L1048,130L1085,101Z" fill="#839eb6" stroke="#839eb6" stroke-width="1.51"/><path d="M970,402L1001,446L1035,338Z" fill="#659ab1" stroke="#659ab1" stroke-width="1.51"/><path d="M1031,857L1039,967L1083,922Z" fill="#1465a5" stroke="#1465a5" stroke-width="1.51"/><path d="M1019,1030L1029,1119L1079,1073Z" fill="#0a5496" stroke="#0a5496" stroke-width="1.51"/><path d="M1030,504L1031,577L1074,526Z" fill="#4c8cb1" stroke="#4c8cb1" stroke-width="1.51"/><path d="M1017,270L1035,338L1075,288Z" fill="#7199ab" stroke="#7199ab" stroke-width="1.51"/><path d="M998,-39L961,31L1007,72Z" fill="#8aa9c3" stroke="#8aa9c3" stroke-width="1.51"/><path d="M1007,629L967,660L1018,724Z" fill="#3389bc" stroke="#3389bc" stroke-width="1.51"/><path d="M970,774L1009,817L1018,724Z" fill="#267db5" stroke="#267db5" stroke-width="1.51"/><path d="M1019,1030L954,1084L1029,1119Z" fill="#09589b" stroke="#09589b" stroke-width="1.51"/><path d="M1031,857L962,866L1039,967Z" fill="#156dac" stroke="#156dac" stroke-width="1.51"/><path d="M962,866L929,960L1039,967Z" fill="#116daf" stroke="#116daf" stroke-width="1.51"/><path d="M1007,72L925,139L1048,130Z" fill="#85a6bc" stroke="#85a6bc" stroke-width="1.51"/><path d="M938,199L1043,220L1048,130Z" fill="#80a2b5" stroke="#80a2b5" stroke-width="1.51"/><path d="M925,139L938,199L1048,130Z" fill="#84a8bc" stroke="#84a8bc" stroke-width="1.51"/><path d="M772,1075L723,1094L890,1078Z" fill="#226fa8" stroke="#226fa8" stroke-width="1.51"/><path d="M1030,504L960,513L1031,577Z" fill="#4d92b6" stroke="#4d92b6" stroke-width="1.51"/><path d="M1017,270L955,297L1035,338Z" fill="#739eb0" stroke="#739eb0" stroke-width="1.51"/><path d="M938,199L1017,270L1043,220Z" fill="#7ba2b4" stroke="#7ba2b4" stroke-width="1.51"/><path d="M929,960L932,1014L1019,1030Z" fill="#0c67aa" stroke="#0c67aa" stroke-width="1.51"/><path d="M948,360L970,402L1035,338Z" fill="#6a9eb2" stroke="#6a9eb2" stroke-width="1.51"/><path d="M960,-83L998,-39L1038,-96Z" fill="#91aac7" stroke="#91aac7" stroke-width="1.51"/><path d="M929,960L1019,1030L1039,967Z" fill="#0964a8" stroke="#0964a8" stroke-width="1.51"/><path d="M960,513L938,560L1031,577Z" fill="#4b95bb" stroke="#4b95bb" stroke-width="1.51"/><path d="M955,297L948,360L1035,338Z" fill="#70a1b2" stroke="#70a1b2" stroke-width="1.51"/><path d="M967,660L973,726L1018,724Z" fill="#2f86bc" stroke="#2f86bc" stroke-width="1.51"/><path d="M973,726L970,774L1018,724Z" fill="#2a82b9" stroke="#2a82b9" stroke-width="1.51"/><path d="M1001,446L960,513L1030,504Z" fill="#5596b6" stroke="#5596b6" stroke-width="1.51"/><path d="M1009,817L962,866L1031,857Z" fill="#1c74b0" stroke="#1c74b0" stroke-width="1.51"/><path d="M938,560L1007,629L1031,577Z" fill="#4490ba" stroke="#4490ba" stroke-width="1.51"/><path d="M960,-83L965,-50L998,-39Z" fill="#90adc9" stroke="#90adc9" stroke-width="1.51"/><path d="M938,199L955,297L1017,270Z" fill="#79a5b7" stroke="#79a5b7" stroke-width="1.51"/><path d="M932,1014L954,1084L1019,1030Z" fill="#0b60a3" stroke="#0b60a3" stroke-width="1.51"/><path d="M965,-50L961,31L998,-39Z" fill="#8eacc7" stroke="#8eacc7" stroke-width="1.51"/><path d="M938,560L967,660L1007,629Z" fill="#3f91be" stroke="#3f91be" stroke-width="1.51"/><path d="M961,31L925,139L1007,72Z" fill="#89abc2" stroke="#89abc2" stroke-width="1.51"/><path d="M970,774L962,866L1009,817Z" fill="#1e79b5" stroke="#1e79b5" stroke-width="1.51"/><path d="M970,402L960,513L1001,446Z" fill="#5c9bb7" stroke="#5c9bb7" stroke-width="1.51"/><path d="M938,199L868,258L955,297Z" fill="#7dabba" stroke="#7dabba" stroke-width="1.51"/><path d="M873,435L901,523L960,513Z" fill="#58a1bc" stroke="#58a1bc" stroke-width="1.51"/><path d="M880,63L925,139L961,31Z" fill="#8bafc3" stroke="#8bafc3" stroke-width="1.51"/><path d="M884,938L929,960L962,866Z" fill="#1974b2" stroke="#1974b2" stroke-width="1.51"/><path d="M871,890L884,938L962,866Z" fill="#1e79b5" stroke="#1e79b5" stroke-width="1.51"/><path d="M858,-28L961,31L965,-50Z" fill="#90b1ca" stroke="#90b1ca" stroke-width="1.51"/><path d="M938,560L852,627L967,660Z" fill="#4297c1" stroke="#4297c1" stroke-width="1.51"/><path d="M849,825L962,866L970,774Z" fill="#237fb8" stroke="#237fb8" stroke-width="1.51"/><path d="M902,743L849,825L970,774Z" fill="#2a86bc" stroke="#2a86bc" stroke-width="1.51"/><path d="M873,435L960,513L970,402Z" fill="#5ea0b9" stroke="#5ea0b9" stroke-width="1.51"/><path d="M902,743L970,774L973,726Z" fill="#2b86bb" stroke="#2b86bb" stroke-width="1.51"/><path d="M967,660L902,743L973,726Z" fill="#308abe" stroke="#308abe" stroke-width="1.51"/><path d="M948,360L873,435L970,402Z" fill="#68a3b7" stroke="#68a3b7" stroke-width="1.51"/><path d="M849,825L871,890L962,866Z" fill="#227eb8" stroke="#227eb8" stroke-width="1.51"/><path d="M852,627L902,743L967,660Z" fill="#3793c3" stroke="#3793c3" stroke-width="1.51"/><path d="M932,1014L890,1078L954,1084Z" fill="#1263a4" stroke="#1263a4" stroke-width="1.51"/><path d="M858,-28L880,63L961,31Z" fill="#8fb4c9" stroke="#8fb4c9" stroke-width="1.51"/><path d="M960,-83L895,-109L965,-50Z" fill="#94b2cd" stroke="#94b2cd" stroke-width="1.51"/><path d="M895,-109L858,-28L965,-50Z" fill="#95b5ce" stroke="#95b5ce" stroke-width="1.51"/><path d="M860,349L948,360L955,297Z" fill="#72a7b5" stroke="#72a7b5" stroke-width="1.51"/><path d="M901,523L938,560L960,513Z" fill="#509bbc" stroke="#509bbc" stroke-width="1.51"/><path d="M871,216L868,258L938,199Z" fill="#81afbd" stroke="#81afbd" stroke-width="1.51"/><path d="M880,63L893,136L925,139Z" fill="#8ab2c3" stroke="#8ab2c3" stroke-width="1.51"/><path d="M860,349L873,435L948,360Z" fill="#6da8b9" stroke="#6da8b9" stroke-width="1.51"/><path d="M868,258L860,349L955,297Z" fill="#78acb8" stroke="#78acb8" stroke-width="1.51"/><path d="M868,551L852,627L938,560Z" fill="#4a9dc1" stroke="#4a9dc1" stroke-width="1.51"/><path d="M929,960L853,1012L932,1014Z" fill="#156ead" stroke="#156ead" stroke-width="1.51"/><path d="M901,523L868,551L938,560Z" fill="#4f9ebf" stroke="#4f9ebf" stroke-width="1.51"/><path d="M925,139L893,136L938,199Z" fill="#86aebf" stroke="#86aebf" stroke-width="1.51"/><path d="M893,136L871,216L938,199Z" fill="#85b0be" stroke="#85b0be" stroke-width="1.51"/><path d="M884,938L853,1012L929,960Z" fill="#1773b2" stroke="#1773b2" stroke-width="1.51"/><path d="M853,1012L890,1078L932,1014Z" fill="#166aa9" stroke="#166aa9" stroke-width="1.51"/><path d="M860,349L824,368L873,435Z" fill="#6eadba" stroke="#6eadba" stroke-width="1.51"/><path d="M780,523L868,551L873,435Z" fill="#59a9c0" stroke="#59a9c0" stroke-width="1.51"/><path d="M807,432L780,523L873,435Z" fill="#61adc0" stroke="#61adc0" stroke-width="1.51"/><path d="M801,181L871,216L893,136Z" fill="#88b6c1" stroke="#88b6c1" stroke-width="1.51"/><path d="M873,435L868,551L901,523Z" fill="#57a4be" stroke="#57a4be" stroke-width="1.51"/><path d="M788,784L849,825L902,743Z" fill="#2e8dbf" stroke="#2e8dbf" stroke-width="1.51"/><path d="M791,699L788,784L902,743Z" fill="#3494c3" stroke="#3494c3" stroke-width="1.51"/><path d="M852,627L791,699L902,743Z" fill="#3998c5" stroke="#3998c5" stroke-width="1.51"/><path d="M880,63L811,67L893,136Z" fill="#8eb7c6" stroke="#8eb7c6" stroke-width="1.51"/><path d="M798,-109L858,-28L895,-109Z" fill="#99bdd2" stroke="#99bdd2" stroke-width="1.51"/><path d="M806,-17L811,67L858,-28Z" fill="#94bece" stroke="#94bece" stroke-width="1.51"/><path d="M858,-28L811,67L880,63Z" fill="#91bacb" stroke="#91bacb" stroke-width="1.51"/><path d="M826,937L853,1012L884,938Z" fill="#1c77b4" stroke="#1c77b4" stroke-width="1.51"/><path d="M801,1048L772,1075L890,1078Z" fill="#1e6da9" stroke="#1e6da9" stroke-width="1.51"/><path d="M811,67L785,106L893,136Z" fill="#8ebac7" stroke="#8ebac7" stroke-width="1.51"/><path d="M804,272L860,349L868,258Z" fill="#7bb2bc" stroke="#7bb2bc" stroke-width="1.51"/><path d="M853,1012L801,1048L890,1078Z" fill="#1b6eaa" stroke="#1b6eaa" stroke-width="1.51"/><path d="M785,106L801,181L893,136Z" fill="#8cbac5" stroke="#8cbac5" stroke-width="1.51"/><path d="M785,667L791,699L852,627Z" fill="#3fa0c9" stroke="#3fa0c9" stroke-width="1.51"/><path d="M871,890L826,937L884,938Z" fill="#1f7bb6" stroke="#1f7bb6" stroke-width="1.51"/><path d="M849,825L809,885L871,890Z" fill="#2683ba" stroke="#2683ba" stroke-width="1.51"/><path d="M824,368L807,432L873,435Z" fill="#6aadbd" stroke="#6aadbd" stroke-width="1.51"/><path d="M798,-109L806,-17L858,-28Z" fill="#99c0d2" stroke="#99c0d2" stroke-width="1.51"/><path d="M781,577L852,627L868,551Z" fill="#4ca4c4" stroke="#4ca4c4" stroke-width="1.51"/><path d="M809,885L826,937L871,890Z" fill="#2380b8" stroke="#2380b8" stroke-width="1.51"/><path d="M804,272L868,258L871,216Z" fill="#81b3be" stroke="#81b3be" stroke-width="1.51"/><path d="M801,181L804,272L871,216Z" fill="#85b7c0" stroke="#85b7c0" stroke-width="1.51"/><path d="M804,272L824,368L860,349Z" fill="#78b3bb" stroke="#78b3bb" stroke-width="1.51"/><path d="M780,523L781,577L868,551Z" fill="#53a9c4" stroke="#53a9c4" stroke-width="1.51"/><path d="M826,937L801,1048L853,1012Z" fill="#1d76b1" stroke="#1d76b1" stroke-width="1.51"/><path d="M740,1022L801,1048L826,937Z" fill="#237ab3" stroke="#237ab3" stroke-width="1.51"/><path d="M781,577L785,667L852,627Z" fill="#46a4c8" stroke="#46a4c8" stroke-width="1.51"/><path d="M788,784L809,885L849,825Z" fill="#2b8bbe" stroke="#2b8bbe" stroke-width="1.51"/><path d="M781,577L739,626L785,667Z" fill="#4aa8cb" stroke="#4aa8cb" stroke-width="1.51"/><path d="M736,222L742,250L801,181Z" fill="#8ac0c4" stroke="#8ac0c4" stroke-width="1.51"/><path d="M801,181L742,250L804,272Z" fill="#86bcc2" stroke="#86bcc2" stroke-width="1.51"/><path d="M798,-109L732,-27L806,-17Z" fill="#9cc5d4" stroke="#9cc5d4" stroke-width="1.51"/><path d="M788,784L742,872L809,885Z" fill="#2e8dbf" stroke="#2e8dbf" stroke-width="1.51"/><path d="M747,361L807,432L824,368Z" fill="#71b4be" stroke="#71b4be" stroke-width="1.51"/><path d="M804,272L747,361L824,368Z" fill="#7ab7bd" stroke="#7ab7bd" stroke-width="1.51"/><path d="M721,948L740,1022L826,937Z" fill="#2882b9" stroke="#2882b9" stroke-width="1.51"/><path d="M809,885L721,948L826,937Z" fill="#2884ba" stroke="#2884ba" stroke-width="1.51"/><path d="M744,430L780,523L807,432Z" fill="#65b2c2" stroke="#65b2c2" stroke-width="1.51"/><path d="M806,-17L732,-27L811,67Z" fill="#97c3d1" stroke="#97c3d1" stroke-width="1.51"/><path d="M744,430L726,510L780,523Z" fill="#62b5c5" stroke="#62b5c5" stroke-width="1.51"/><path d="M742,250L747,361L804,272Z" fill="#81bcc0" stroke="#81bcc0" stroke-width="1.51"/><path d="M747,361L744,430L807,432Z" fill="#6fb7c1" stroke="#6fb7c1" stroke-width="1.51"/><path d="M742,872L721,948L809,885Z" fill="#2d8abe" stroke="#2d8abe" stroke-width="1.51"/><path d="M706,71L785,106L811,67Z" fill="#94c3cd" stroke="#94c3cd" stroke-width="1.51"/><path d="M732,-27L706,71L811,67Z" fill="#98c7d1" stroke="#98c7d1" stroke-width="1.51"/><path d="M704,747L788,784L791,699Z" fill="#3b9cc7" stroke="#3b9cc7" stroke-width="1.51"/><path d="M785,106L712,116L801,181Z" fill="#91c2c9" stroke="#91c2c9" stroke-width="1.51"/><path d="M713,794L742,872L788,784Z" fill="#3494c3" stroke="#3494c3" stroke-width="1.51"/><path d="M699,-110L732,-27L798,-109Z" fill="#a1cad9" stroke="#a1cad9" stroke-width="1.51"/><path d="M740,1022L772,1075L801,1048Z" fill="#2676ae" stroke="#2676ae" stroke-width="1.51"/><path d="M712,116L736,222L801,181Z" fill="#90c3c7" stroke="#90c3c7" stroke-width="1.51"/><path d="M704,747L713,794L788,784Z" fill="#3b9bc6" stroke="#3b9bc6" stroke-width="1.51"/><path d="M785,667L704,747L791,699Z" fill="#3fa1ca" stroke="#3fa1ca" stroke-width="1.51"/><path d="M780,523L718,579L781,577Z" fill="#56aec8" stroke="#56aec8" stroke-width="1.51"/><path d="M739,626L704,747L785,667Z" fill="#44a6cc" stroke="#44a6cc" stroke-width="1.51"/><path d="M706,71L712,116L785,106Z" fill="#96c7ce" stroke="#96c7ce" stroke-width="1.51"/><path d="M726,510L718,579L780,523Z" fill="#5bb2c8" stroke="#5bb2c8" stroke-width="1.51"/><path d="M718,579L739,626L781,577Z" fill="#51adcb" stroke="#51adcb" stroke-width="1.51"/><path d="M712,116L671,172L736,222Z" fill="#93c9cb" stroke="#93c9cb" stroke-width="1.51"/><path d="M659,715L704,747L739,626Z" fill="#47a9ce" stroke="#47a9ce" stroke-width="1.51"/><path d="M742,250L650,289L747,361Z" fill="#83c3c3" stroke="#83c3c3" stroke-width="1.51"/><path d="M740,1022L723,1094L772,1075Z" fill="#2977ae" stroke="#2977ae" stroke-width="1.51"/><path d="M675,-36L658,60L706,71Z" fill="#9ed0d5" stroke="#9ed0d5" stroke-width="1.51"/><path d="M675,-36L706,71L732,-27Z" fill="#9ecdd6" stroke="#9ecdd6" stroke-width="1.51"/><path d="M699,-110L675,-36L732,-27Z" fill="#a2cfd9" stroke="#a2cfd9" stroke-width="1.51"/><path d="M633,624L659,715L739,626Z" fill="#4eb1d2" stroke="#4eb1d2" stroke-width="1.51"/><path d="M657,1039L723,1094L740,1022Z" fill="#2e7db2" stroke="#2e7db2" stroke-width="1.51"/><path d="M713,794L631,858L742,872Z" fill="#3998c4" stroke="#3998c4" stroke-width="1.51"/><path d="M659,425L726,510L744,430Z" fill="#6cbbc6" stroke="#6cbbc6" stroke-width="1.51"/><path d="M659,425L744,430L747,361Z" fill="#74bdc3" stroke="#74bdc3" stroke-width="1.51"/><path d="M630,378L659,425L747,361Z" fill="#7ac3c5" stroke="#7ac3c5" stroke-width="1.51"/><path d="M650,289L630,378L747,361Z" fill="#81c6c4" stroke="#81c6c4" stroke-width="1.51"/><path d="M659,425L646,496L726,510Z" fill="#6abeca" stroke="#6abeca" stroke-width="1.51"/><path d="M721,948L657,1039L740,1022Z" fill="#2f84b9" stroke="#2f84b9" stroke-width="1.51"/><path d="M631,858L721,948L742,872Z" fill="#3592c2" stroke="#3592c2" stroke-width="1.51"/><path d="M736,222L650,289L742,250Z" fill="#8ac5c6" stroke="#8ac5c6" stroke-width="1.51"/><path d="M653,598L633,624L739,626Z" fill="#54b4d0" stroke="#54b4d0" stroke-width="1.51"/><path d="M718,579L653,598L739,626Z" fill="#54b2ce" stroke="#54b2ce" stroke-width="1.51"/><path d="M658,-79L675,-36L699,-110Z" fill="#a6d3dd" stroke="#a6d3dd" stroke-width="1.51"/><path d="M631,858L630,953L721,948Z" fill="#3893c3" stroke="#3893c3" stroke-width="1.51"/><path d="M671,172L650,289L736,222Z" fill="#8fc9c9" stroke="#8fc9c9" stroke-width="1.51"/><path d="M630,953L657,1039L721,948Z" fill="#338cbf" stroke="#338cbf" stroke-width="1.51"/><path d="M646,496L718,579L726,510Z" fill="#60b8cb" stroke="#60b8cb" stroke-width="1.51"/><path d="M647,785L631,858L713,794Z" fill="#3ea0c9" stroke="#3ea0c9" stroke-width="1.51"/><path d="M646,496L653,598L718,579Z" fill="#5eb9ce" stroke="#5eb9ce" stroke-width="1.51"/><path d="M657,1039L645,1120L723,1094Z" fill="#317cb0" stroke="#317cb0" stroke-width="1.51"/><path d="M704,747L647,785L713,794Z" fill="#3fa1ca" stroke="#3fa1ca" stroke-width="1.51"/><path d="M566,-108L658,-79L699,-110Z" fill="#abd8de" stroke="#abd8de" stroke-width="1.51"/><path d="M706,71L658,60L712,116Z" fill="#9acdd2" stroke="#9acdd2" stroke-width="1.51"/><path d="M658,60L623,101L712,116Z" fill="#9bd0d2" stroke="#9bd0d2" stroke-width="1.51"/><path d="M623,101L671,172L712,116Z" fill="#99cfd0" stroke="#99cfd0" stroke-width="1.51"/><path d="M524,1080L437,1107L645,1120Z" fill="#4a85a9" stroke="#4a85a9" stroke-width="1.51"/><path d="M659,715L647,785L704,747Z" fill="#44a6cc" stroke="#44a6cc" stroke-width="1.51"/><path d="M589,892L630,953L631,858Z" fill="#4399c2" stroke="#4399c2" stroke-width="1.51"/><path d="M561,226L566,266L650,289Z" fill="#94d0c5" stroke="#94d0c5" stroke-width="1.51"/><path d="M646,496L562,571L653,598Z" fill="#65becc" stroke="#65becc" stroke-width="1.51"/><path d="M630,953L587,1003L657,1039Z" fill="#3c8cbb" stroke="#3c8cbb" stroke-width="1.51"/><path d="M597,1072L645,1120L657,1039Z" fill="#3981b1" stroke="#3981b1" stroke-width="1.51"/><path d="M633,624L601,631L659,715Z" fill="#54b5d2" stroke="#54b5d2" stroke-width="1.51"/><path d="M561,226L650,289L671,172Z" fill="#94cfc8" stroke="#94cfc8" stroke-width="1.51"/><path d="M658,-79L562,-2L675,-36Z" fill="#a8d6da" stroke="#a8d6da" stroke-width="1.51"/><path d="M562,-2L658,60L675,-36Z" fill="#a4d5d7" stroke="#a4d5d7" stroke-width="1.51"/><path d="M623,101L574,114L671,172Z" fill="#9ed3ce" stroke="#9ed3ce" stroke-width="1.51"/><path d="M574,114L561,226L671,172Z" fill="#9dd4ca" stroke="#9dd4ca" stroke-width="1.51"/><path d="M568,498L562,571L646,496Z" fill="#6dc3ca" stroke="#6dc3ca" stroke-width="1.51"/><path d="M561,733L578,785L647,785Z" fill="#50aac9" stroke="#50aac9" stroke-width="1.51"/><path d="M558,361L630,378L650,289Z" fill="#87cbc2" stroke="#87cbc2" stroke-width="1.51"/><path d="M562,-2L558,47L658,60Z" fill="#a6d7d3" stroke="#a6d7d3" stroke-width="1.51"/><path d="M566,-108L562,-2L658,-79Z" fill="#addada" stroke="#addada" stroke-width="1.51"/><path d="M601,631L561,733L659,715Z" fill="#54b3cf" stroke="#54b3cf" stroke-width="1.51"/><path d="M561,733L647,785L659,715Z" fill="#4dabcc" stroke="#4dabcc" stroke-width="1.51"/><path d="M581,443L646,496L659,425Z" fill="#74c4c8" stroke="#74c4c8" stroke-width="1.51"/><path d="M630,378L581,443L659,425Z" fill="#7ac7c6" stroke="#7ac7c6" stroke-width="1.51"/><path d="M578,785L631,858L647,785Z" fill="#48a3c7" stroke="#48a3c7" stroke-width="1.51"/><path d="M558,47L623,101L658,60Z" fill="#a2d5d2" stroke="#a2d5d2" stroke-width="1.51"/><path d="M587,1003L597,1072L657,1039Z" fill="#3d88b6" stroke="#3d88b6" stroke-width="1.51"/><path d="M562,571L601,631L633,624Z" fill="#61bbce" stroke="#61bbce" stroke-width="1.51"/><path d="M566,266L558,361L650,289Z" fill="#8ecfc3" stroke="#8ecfc3" stroke-width="1.51"/><path d="M562,571L633,624L653,598Z" fill="#60bbce" stroke="#60bbce" stroke-width="1.51"/><path d="M597,1072L524,1080L645,1120Z" fill="#4182ac" stroke="#4182ac" stroke-width="1.51"/><path d="M589,892L587,950L630,953Z" fill="#4496c0" stroke="#4496c0" stroke-width="1.51"/><path d="M581,443L568,498L646,496Z" fill="#73c5c8" stroke="#73c5c8" stroke-width="1.51"/><path d="M528,-33L562,-2L566,-108Z" fill="#b0ddd7" stroke="#b0ddd7" stroke-width="1.51"/><path d="M587,950L587,1003L630,953Z" fill="#4292be" stroke="#4292be" stroke-width="1.51"/><path d="M558,361L581,443L630,378Z" fill="#82cac4" stroke="#82cac4" stroke-width="1.51"/><path d="M578,785L589,892L631,858Z" fill="#49a1c4" stroke="#49a1c4" stroke-width="1.51"/><path d="M558,47L574,114L623,101Z" fill="#a4d7cf" stroke="#a4d7cf" stroke-width="1.51"/><path d="M523,664L561,733L601,631Z" fill="#5db8ce" stroke="#5db8ce" stroke-width="1.51"/><path d="M198,1108L98,1120L254,1112Z" fill="#7b94a7" stroke="#7b94a7" stroke-width="1.51"/><path d="M518,131L524,214L561,226Z" fill="#a2d8c6" stroke="#a2d8c6" stroke-width="1.51"/><path d="M508,301L558,361L566,266Z" fill="#93d2c0" stroke="#93d2c0" stroke-width="1.51"/><path d="M518,131L561,226L574,114Z" fill="#a3d8c9" stroke="#a3d8c9" stroke-width="1.51"/><path d="M491,783L487,898L578,785Z" fill="#58a9c2" stroke="#58a9c2" stroke-width="1.51"/><path d="M578,785L487,898L589,892Z" fill="#51a3c2" stroke="#51a3c2" stroke-width="1.51"/><path d="M587,1003L524,1080L597,1072Z" fill="#4689b2" stroke="#4689b2" stroke-width="1.51"/><path d="M562,571L523,664L601,631Z" fill="#64bdcd" stroke="#64bdcd" stroke-width="1.51"/><path d="M558,361L481,442L581,443Z" fill="#84cdc2" stroke="#84cdc2" stroke-width="1.51"/><path d="M481,1036L524,1080L587,1003Z" fill="#4c8db1" stroke="#4c8db1" stroke-width="1.51"/><path d="M483,969L587,1003L587,950Z" fill="#4a95bb" stroke="#4a95bb" stroke-width="1.51"/><path d="M487,898L587,950L589,892Z" fill="#4d9cbe" stroke="#4d9cbe" stroke-width="1.51"/><path d="M483,969L481,1036L587,1003Z" fill="#4f94b6" stroke="#4f94b6" stroke-width="1.51"/><path d="M487,898L483,969L587,950Z" fill="#529cbb" stroke="#529cbb" stroke-width="1.51"/><path d="M493,563L562,571L568,498Z" fill="#71c5c8" stroke="#71c5c8" stroke-width="1.51"/><path d="M558,47L518,131L574,114Z" fill="#a7d9cd" stroke="#a7d9cd" stroke-width="1.51"/><path d="M481,442L568,498L581,443Z" fill="#7ccac4" stroke="#7ccac4" stroke-width="1.51"/><path d="M438,-120L472,-85L566,-108Z" fill="#bae4d7" stroke="#bae4d7" stroke-width="1.51"/><path d="M561,733L491,783L578,785Z" fill="#58aec7" stroke="#58aec7" stroke-width="1.51"/><path d="M493,563L523,664L562,571Z" fill="#6cc2ca" stroke="#6cc2ca" stroke-width="1.51"/><path d="M481,442L485,500L568,498Z" fill="#7dccc4" stroke="#7dccc4" stroke-width="1.51"/><path d="M485,500L493,563L568,498Z" fill="#77c9c6" stroke="#77c9c6" stroke-width="1.51"/><path d="M478,354L481,442L558,361Z" fill="#8cd1bf" stroke="#8cd1bf" stroke-width="1.51"/><path d="M497,38L518,131L558,47Z" fill="#abdccd" stroke="#abdccd" stroke-width="1.51"/><path d="M497,38L558,47L562,-2Z" fill="#acdcd1" stroke="#acdcd1" stroke-width="1.51"/><path d="M561,226L524,214L566,266Z" fill="#9bd5c5" stroke="#9bd5c5" stroke-width="1.51"/><path d="M472,-85L528,-33L566,-108Z" fill="#b5e1d7" stroke="#b5e1d7" stroke-width="1.51"/><path d="M523,664L475,712L561,733Z" fill="#60b8ca" stroke="#60b8ca" stroke-width="1.51"/><path d="M524,214L508,301L566,266Z" fill="#99d5c2" stroke="#99d5c2" stroke-width="1.51"/><path d="M508,301L478,354L558,361Z" fill="#92d3bd" stroke="#92d3bd" stroke-width="1.51"/><path d="M528,-33L497,38L562,-2Z" fill="#afddd3" stroke="#afddd3" stroke-width="1.51"/><path d="M475,712L491,783L561,733Z" fill="#5fb4c7" stroke="#5fb4c7" stroke-width="1.51"/><path d="M497,38L445,144L518,131Z" fill="#addeca" stroke="#addeca" stroke-width="1.51"/><path d="M493,563L452,649L523,664Z" fill="#6ec2ca" stroke="#6ec2ca" stroke-width="1.51"/><path d="M423,262L508,301L524,214Z" fill="#9fd9c0" stroke="#9fd9c0" stroke-width="1.51"/><path d="M432,201L423,262L524,214Z" fill="#a6dbc1" stroke="#a6dbc1" stroke-width="1.51"/><path d="M518,131L445,144L524,214Z" fill="#a7dcc6" stroke="#a7dcc6" stroke-width="1.51"/><path d="M445,144L432,201L524,214Z" fill="#aaddc3" stroke="#aaddc3" stroke-width="1.51"/><path d="M402,-44L497,38L528,-33Z" fill="#b6e2d1" stroke="#b6e2d1" stroke-width="1.51"/><path d="M472,-85L402,-44L528,-33Z" fill="#bae3d3" stroke="#bae3d3" stroke-width="1.51"/><path d="M419,50L445,144L497,38Z" fill="#b2e1c9" stroke="#b2e1c9" stroke-width="1.51"/><path d="M452,649L475,712L523,664Z" fill="#69beca" stroke="#69beca" stroke-width="1.51"/><path d="M481,1036L437,1107L524,1080Z" fill="#538cab" stroke="#538cab" stroke-width="1.51"/><path d="M330,1084L254,1112L437,1107Z" fill="#698fa1" stroke="#698fa1" stroke-width="1.51"/><path d="M405,883L487,898L491,783Z" fill="#60a9be" stroke="#60a9be" stroke-width="1.51"/><path d="M478,354L419,414L481,442Z" fill="#90d3be" stroke="#90d3be" stroke-width="1.51"/><path d="M435,943L483,969L487,898Z" fill="#5b9fba" stroke="#5b9fba" stroke-width="1.51"/><path d="M475,712L440,729L491,783Z" fill="#67b7c5" stroke="#67b7c5" stroke-width="1.51"/><path d="M397,794L405,883L491,783Z" fill="#67afbf" stroke="#67afbf" stroke-width="1.51"/><path d="M485,500L446,556L493,563Z" fill="#7bcac5" stroke="#7bcac5" stroke-width="1.51"/><path d="M446,556L452,649L493,563Z" fill="#77c7c7" stroke="#77c7c7" stroke-width="1.51"/><path d="M402,-44L419,50L497,38Z" fill="#b9e3cd" stroke="#b9e3cd" stroke-width="1.51"/><path d="M423,262L478,354L508,301Z" fill="#9cd7bd" stroke="#9cd7bd" stroke-width="1.51"/><path d="M414,1051L437,1107L481,1036Z" fill="#5a8faa" stroke="#5a8faa" stroke-width="1.51"/><path d="M414,1051L481,1036L483,969Z" fill="#5a95b1" stroke="#5a95b1" stroke-width="1.51"/><path d="M435,943L414,1051L483,969Z" fill="#5d9ab5" stroke="#5d9ab5" stroke-width="1.51"/><path d="M481,442L399,485L485,500Z" fill="#86d0c1" stroke="#86d0c1" stroke-width="1.51"/><path d="M440,729L397,794L491,783Z" fill="#69b4c2" stroke="#69b4c2" stroke-width="1.51"/><path d="M423,262L374,322L478,354Z" fill="#a0d9bb" stroke="#a0d9bb" stroke-width="1.51"/><path d="M403,373L419,414L478,354Z" fill="#97d6bc" stroke="#97d6bc" stroke-width="1.51"/><path d="M405,883L435,943L487,898Z" fill="#61a4ba" stroke="#61a4ba" stroke-width="1.51"/><path d="M374,322L403,373L478,354Z" fill="#9dd8b9" stroke="#9dd8b9" stroke-width="1.51"/><path d="M399,485L446,556L485,500Z" fill="#82cec2" stroke="#82cec2" stroke-width="1.51"/><path d="M419,414L399,485L481,442Z" fill="#8dd2bf" stroke="#8dd2bf" stroke-width="1.51"/><path d="M452,649L440,729L475,712Z" fill="#6dbdc7" stroke="#6dbdc7" stroke-width="1.51"/><path d="M438,-120L402,-44L472,-85Z" fill="#c0e6d3" stroke="#c0e6d3" stroke-width="1.51"/><path d="M359,1036L414,1051L435,943Z" fill="#6499b0" stroke="#6499b0" stroke-width="1.51"/><path d="M419,50L365,131L445,144Z" fill="#b6e3c5" stroke="#b6e3c5" stroke-width="1.51"/><path d="M327,553L373,651L446,556Z" fill="#84cbc3" stroke="#84cbc3" stroke-width="1.51"/><path d="M446,556L373,651L452,649Z" fill="#7ac6c6" stroke="#7ac6c6" stroke-width="1.51"/><path d="M373,651L440,729L452,649Z" fill="#75c1c7" stroke="#75c1c7" stroke-width="1.51"/><path d="M402,-44L350,-4L419,50Z" fill="#c0e6cc" stroke="#c0e6cc" stroke-width="1.51"/><path d="M365,131L361,194L432,201Z" fill="#b5e2bf" stroke="#b5e2bf" stroke-width="1.51"/><path d="M324,973L359,1036L435,943Z" fill="#6a9eb2" stroke="#6a9eb2" stroke-width="1.51"/><path d="M373,651L347,699L440,729Z" fill="#79c1c4" stroke="#79c1c4" stroke-width="1.51"/><path d="M365,131L432,201L445,144Z" fill="#b3e1c2" stroke="#b3e1c2" stroke-width="1.51"/><path d="M399,485L327,553L446,556Z" fill="#89cfc1" stroke="#89cfc1" stroke-width="1.51"/><path d="M330,-81L402,-44L438,-120Z" fill="#c6e9d1" stroke="#c6e9d1" stroke-width="1.51"/><path d="M295,-123L330,-81L438,-120Z" fill="#ccebd1" stroke="#ccebd1" stroke-width="1.51"/><path d="M347,699L397,794L440,729Z" fill="#74bac2" stroke="#74bac2" stroke-width="1.51"/><path d="M397,794L348,847L405,883Z" fill="#6faebb" stroke="#6faebb" stroke-width="1.51"/><path d="M361,194L423,262L432,201Z" fill="#aedfbe" stroke="#aedfbe" stroke-width="1.51"/><path d="M414,1051L330,1084L437,1107Z" fill="#628fa6" stroke="#628fa6" stroke-width="1.51"/><path d="M358,439L399,485L419,414Z" fill="#94d4bd" stroke="#94d4bd" stroke-width="1.51"/><path d="M405,883L324,973L435,943Z" fill="#6aa3b7" stroke="#6aa3b7" stroke-width="1.51"/><path d="M359,1036L330,1084L414,1051Z" fill="#6794a8" stroke="#6794a8" stroke-width="1.51"/><path d="M338,28L365,131L419,50Z" fill="#bde5c6" stroke="#bde5c6" stroke-width="1.51"/><path d="M350,-4L338,28L419,50Z" fill="#c1e7c9" stroke="#c1e7c9" stroke-width="1.51"/><path d="M337,249L374,322L423,262Z" fill="#aadeba" stroke="#aadeba" stroke-width="1.51"/><path d="M361,194L337,249L423,262Z" fill="#b0e0bc" stroke="#b0e0bc" stroke-width="1.51"/><path d="M403,373L358,439L419,414Z" fill="#98d6bb" stroke="#98d6bb" stroke-width="1.51"/><path d="M347,810L348,847L397,794Z" fill="#73b2bb" stroke="#73b2bb" stroke-width="1.51"/><path d="M347,699L347,810L397,794Z" fill="#77b9bf" stroke="#77b9bf" stroke-width="1.51"/><path d="M325,481L327,553L399,485Z" fill="#91d3be" stroke="#91d3be" stroke-width="1.51"/><path d="M348,847L324,973L405,883Z" fill="#70a8b7" stroke="#70a8b7" stroke-width="1.51"/><path d="M374,322L297,331L403,373Z" fill="#a6dcb6" stroke="#a6dcb6" stroke-width="1.51"/><path d="M297,331L358,439L403,373Z" fill="#a2dab8" stroke="#a2dab8" stroke-width="1.51"/><path d="M330,-81L350,-4L402,-44Z" fill="#c6e9cd" stroke="#c6e9cd" stroke-width="1.51"/><path d="M358,439L325,481L399,485Z" fill="#95d5bc" stroke="#95d5bc" stroke-width="1.51"/><path d="M286,725L347,810L347,699Z" fill="#7ebdc0" stroke="#7ebdc0" stroke-width="1.51"/><path d="M248,926L324,973L348,847Z" fill="#76a9b7" stroke="#76a9b7" stroke-width="1.51"/><path d="M297,331L269,402L358,439Z" fill="#a5dcb9" stroke="#a5dcb9" stroke-width="1.51"/><path d="M292,184L361,194L365,131Z" fill="#bbe5be" stroke="#bbe5be" stroke-width="1.51"/><path d="M338,28L286,67L365,131Z" fill="#c2e7c5" stroke="#c2e7c5" stroke-width="1.51"/><path d="M327,553L270,599L373,651Z" fill="#8bcdc3" stroke="#8bcdc3" stroke-width="1.51"/><path d="M270,599L265,669L373,651Z" fill="#8acbc5" stroke="#8acbc5" stroke-width="1.51"/><path d="M337,249L284,297L374,322Z" fill="#afe0b8" stroke="#afe0b8" stroke-width="1.51"/><path d="M284,297L297,331L374,322Z" fill="#addfb7" stroke="#addfb7" stroke-width="1.51"/><path d="M265,669L347,699L373,651Z" fill="#83c7c4" stroke="#83c7c4" stroke-width="1.51"/><path d="M252,863L248,926L348,847Z" fill="#7baeba" stroke="#7baeba" stroke-width="1.51"/><path d="M269,106L292,184L365,131Z" fill="#c0e7c1" stroke="#c0e7c1" stroke-width="1.51"/><path d="M286,67L269,106L365,131Z" fill="#c3e8c4" stroke="#c3e8c4" stroke-width="1.51"/><path d="M324,973L272,1036L359,1036Z" fill="#709cae" stroke="#709cae" stroke-width="1.51"/><path d="M292,184L337,249L361,194Z" fill="#b8e4bc" stroke="#b8e4bc" stroke-width="1.51"/><path d="M330,-81L258,-13L350,-4Z" fill="#cbebcd" stroke="#cbebcd" stroke-width="1.51"/><path d="M272,1036L330,1084L359,1036Z" fill="#6e97a9" stroke="#6e97a9" stroke-width="1.51"/><path d="M269,402L325,481L358,439Z" fill="#9ed8bb" stroke="#9ed8bb" stroke-width="1.51"/><path d="M286,725L268,822L347,810Z" fill="#7eb9be" stroke="#7eb9be" stroke-width="1.51"/><path d="M347,810L268,822L348,847Z" fill="#79b3bb" stroke="#79b3bb" stroke-width="1.51"/><path d="M258,-13L338,28L350,-4Z" fill="#c9eaca" stroke="#c9eaca" stroke-width="1.51"/><path d="M265,669L286,725L347,699Z" fill="#85c4c4" stroke="#85c4c4" stroke-width="1.51"/><path d="M268,822L252,863L348,847Z" fill="#7cb3bc" stroke="#7cb3bc" stroke-width="1.51"/><path d="M325,481L253,497L327,553Z" fill="#97d5bf" stroke="#97d5bf" stroke-width="1.51"/><path d="M258,-13L286,67L338,28Z" fill="#c9eaca" stroke="#c9eaca" stroke-width="1.51"/><path d="M292,184L284,297L337,249Z" fill="#b7e3bc" stroke="#b7e3bc" stroke-width="1.51"/><path d="M269,402L253,497L325,481Z" fill="#9fd9be" stroke="#9fd9be" stroke-width="1.51"/><path d="M272,1036L254,1112L330,1084Z" fill="#7195a7" stroke="#7195a7" stroke-width="1.51"/><path d="M295,-123L258,-13L330,-81Z" fill="#d1edd0" stroke="#d1edd0" stroke-width="1.51"/><path d="M253,497L270,599L327,553Z" fill="#95d3c2" stroke="#95d3c2" stroke-width="1.51"/><path d="M248,926L272,1036L324,973Z" fill="#76a2b5" stroke="#76a2b5" stroke-width="1.51"/><path d="M248,926L202,957L272,1036Z" fill="#7ba5b7" stroke="#7ba5b7" stroke-width="1.51"/><path d="M217,785L268,822L286,725Z" fill="#84bcc1" stroke="#84bcc1" stroke-width="1.51"/><path d="M258,-13L207,42L286,67Z" fill="#ceeccc" stroke="#ceeccc" stroke-width="1.51"/><path d="M269,106L211,176L292,184Z" fill="#c5e8c3" stroke="#c5e8c3" stroke-width="1.51"/><path d="M217,294L284,297L292,184Z" fill="#bae4bd" stroke="#bae4bd" stroke-width="1.51"/><path d="M211,176L217,294L292,184Z" fill="#c2e7c0" stroke="#c2e7c0" stroke-width="1.51"/><path d="M180,-121L258,-13L295,-123Z" fill="#d7efd4" stroke="#d7efd4" stroke-width="1.51"/><path d="M284,297L218,361L297,331Z" fill="#b2e1b9" stroke="#b2e1b9" stroke-width="1.51"/><path d="M218,361L269,402L297,331Z" fill="#aedfba" stroke="#aedfba" stroke-width="1.51"/><path d="M217,294L218,361L284,297Z" fill="#b6e3bb" stroke="#b6e3bb" stroke-width="1.51"/><path d="M203,483L253,497L269,402Z" fill="#a4dbc0" stroke="#a4dbc0" stroke-width="1.51"/><path d="M253,497L205,599L270,599Z" fill="#98d4c5" stroke="#98d4c5" stroke-width="1.51"/><path d="M203,749L217,785L286,725Z" fill="#89c0c4" stroke="#89c0c4" stroke-width="1.51"/><path d="M265,669L203,749L286,725Z" fill="#89c4c6" stroke="#89c4c6" stroke-width="1.51"/><path d="M207,42L269,106L286,67Z" fill="#cbebc9" stroke="#cbebc9" stroke-width="1.51"/><path d="M203,483L205,599L253,497Z" fill="#9fd8c4" stroke="#9fd8c4" stroke-width="1.51"/><path d="M180,-121L205,2L258,-13Z" fill="#d8f0d3" stroke="#d8f0d3" stroke-width="1.51"/><path d="M205,2L207,42L258,-13Z" fill="#d3eecf" stroke="#d3eecf" stroke-width="1.51"/><path d="M205,599L181,651L265,669Z" fill="#94cfca" stroke="#94cfca" stroke-width="1.51"/><path d="M176,437L203,483L269,402Z" fill="#a9ddc0" stroke="#a9ddc0" stroke-width="1.51"/><path d="M174,117L211,176L269,106Z" fill="#cbebc6" stroke="#cbebc6" stroke-width="1.51"/><path d="M205,599L265,669L270,599Z" fill="#92cfc7" stroke="#92cfc7" stroke-width="1.51"/><path d="M202,957L181,1029L272,1036Z" fill="#7ca1b4" stroke="#7ca1b4" stroke-width="1.51"/><path d="M198,1108L254,1112L272,1036Z" fill="#7695a8" stroke="#7695a8" stroke-width="1.51"/><path d="M181,1029L198,1108L272,1036Z" fill="#7a9aad" stroke="#7a9aad" stroke-width="1.51"/><path d="M181,651L203,749L265,669Z" fill="#90c9c9" stroke="#90c9c9" stroke-width="1.51"/><path d="M207,42L174,117L269,106Z" fill="#ceecc9" stroke="#ceecc9" stroke-width="1.51"/><path d="M218,361L176,437L269,402Z" fill="#aee0be" stroke="#aee0be" stroke-width="1.51"/><path d="M217,785L252,863L268,822Z" fill="#82b7bf" stroke="#82b7bf" stroke-width="1.51"/><path d="M191,897L248,926L252,863Z" fill="#80aebc" stroke="#80aebc" stroke-width="1.51"/><path d="M217,785L191,897L252,863Z" fill="#84b5bf" stroke="#84b5bf" stroke-width="1.51"/><path d="M180,-121L141,-13L205,2Z" fill="#dcf1d5" stroke="#dcf1d5" stroke-width="1.51"/><path d="M137,820L191,897L217,785Z" fill="#89b8c2" stroke="#89b8c2" stroke-width="1.51"/><path d="M191,897L202,957L248,926Z" fill="#81abbb" stroke="#81abbb" stroke-width="1.51"/><path d="M181,651L149,730L203,749Z" fill="#92c8c9" stroke="#92c8c9" stroke-width="1.51"/><path d="M130,478L112,586L203,483Z" fill="#a6dbc8" stroke="#a6dbc8" stroke-width="1.51"/><path d="M203,483L112,586L205,599Z" fill="#a1d7c8" stroke="#a1d7c8" stroke-width="1.51"/><path d="M211,176L128,176L217,294Z" fill="#c8eac3" stroke="#c8eac3" stroke-width="1.51"/><path d="M128,176L125,301L217,294Z" fill="#c5e8c2" stroke="#c5e8c2" stroke-width="1.51"/><path d="M100,368L131,417L218,361Z" fill="#b7e3c1" stroke="#b7e3c1" stroke-width="1.51"/><path d="M125,301L100,368L218,361Z" fill="#bce5bf" stroke="#bce5bf" stroke-width="1.51"/><path d="M131,417L176,437L218,361Z" fill="#b3e1c0" stroke="#b3e1c0" stroke-width="1.51"/><path d="M217,294L125,301L218,361Z" fill="#bce5bd" stroke="#bce5bd" stroke-width="1.51"/><path d="M203,749L137,820L217,785Z" fill="#8cbec4" stroke="#8cbec4" stroke-width="1.51"/><path d="M139,-122L141,-13L180,-121Z" fill="#e0f3d9" stroke="#e0f3d9" stroke-width="1.51"/><path d="M149,730L137,820L203,749Z" fill="#8fc1c7" stroke="#8fc1c7" stroke-width="1.51"/><path d="M116,44L174,117L207,42Z" fill="#d4efce" stroke="#d4efce" stroke-width="1.51"/><path d="M174,117L128,176L211,176Z" fill="#ceecc7" stroke="#ceecc7" stroke-width="1.51"/><path d="M191,897L126,950L202,957Z" fill="#85acbd" stroke="#85acbd" stroke-width="1.51"/><path d="M126,950L181,1029L202,957Z" fill="#82a7bb" stroke="#82a7bb" stroke-width="1.51"/><path d="M145,634L181,651L205,599Z" fill="#9ad1cb" stroke="#9ad1cb" stroke-width="1.51"/><path d="M205,2L141,-13L207,42Z" fill="#d7f0d1" stroke="#d7f0d1" stroke-width="1.51"/><path d="M141,-13L116,44L207,42Z" fill="#d8f0d2" stroke="#d8f0d2" stroke-width="1.51"/><path d="M137,820L111,859L191,897Z" fill="#8ab6c3" stroke="#8ab6c3" stroke-width="1.51"/><path d="M181,1029L98,1120L198,1108Z" fill="#7e98ad" stroke="#7e98ad" stroke-width="1.51"/><path d="M112,586L145,634L205,599Z" fill="#9dd3cc" stroke="#9dd3cc" stroke-width="1.51"/><path d="M126,950L113,1008L181,1029Z" fill="#83a5ba" stroke="#83a5ba" stroke-width="1.51"/><path d="M176,437L130,478L203,483Z" fill="#abdec4" stroke="#abdec4" stroke-width="1.51"/><path d="M77,1076L98,1120L181,1029Z" fill="#809ab1" stroke="#809ab1" stroke-width="1.51"/><path d="M113,1008L77,1076L181,1029Z" fill="#82a0b6" stroke="#82a0b6" stroke-width="1.51"/><path d="M145,634L149,730L181,651Z" fill="#97cdcd" stroke="#97cdcd" stroke-width="1.51"/><path d="M111,859L126,950L191,897Z" fill="#88b1c1" stroke="#88b1c1" stroke-width="1.51"/><path d="M97,135L128,176L174,117Z" fill="#d2edcb" stroke="#d2edcb" stroke-width="1.51"/><path d="M116,44L97,135L174,117Z" fill="#d5efce" stroke="#d5efce" stroke-width="1.51"/><path d="M131,417L130,478L176,437Z" fill="#afe0c5" stroke="#afe0c5" stroke-width="1.51"/><path d="M64,69L97,135L116,44Z" fill="#d8efd2" stroke="#d8efd2" stroke-width="1.51"/><path d="M62,172L31,297L125,301Z" fill="#cbeac8" stroke="#cbeac8" stroke-width="1.51"/><path d="M111,859L73,923L126,950Z" fill="#8ab1c3" stroke="#8ab1c3" stroke-width="1.51"/><path d="M62,172L125,301L128,176Z" fill="#cdecc8" stroke="#cdecc8" stroke-width="1.51"/><path d="M26,515L112,586L130,478Z" fill="#aadccd" stroke="#aadccd" stroke-width="1.51"/><path d="M42,730L27,783L137,820Z" fill="#94c2cd" stroke="#94c2cd" stroke-width="1.51"/><path d="M139,-122L66,-114L141,-13Z" fill="#e2f4db" stroke="#e2f4db" stroke-width="1.51"/><path d="M66,-114L37,-4L141,-13Z" fill="#e1f4db" stroke="#e1f4db" stroke-width="1.51"/><path d="M52,628L42,730L145,634Z" fill="#9cd1d3" stroke="#9cd1d3" stroke-width="1.51"/><path d="M145,634L42,730L149,730Z" fill="#98cbcf" stroke="#98cbcf" stroke-width="1.51"/><path d="M42,730L137,820L149,730Z" fill="#93c3cb" stroke="#93c3cb" stroke-width="1.51"/><path d="M112,586L63,601L145,634Z" fill="#a0d5cf" stroke="#a0d5cf" stroke-width="1.51"/><path d="M63,601L52,628L145,634Z" fill="#a0d4d1" stroke="#a0d4d1" stroke-width="1.51"/><path d="M37,-4L116,44L141,-13Z" fill="#dcf2d6" stroke="#dcf2d6" stroke-width="1.51"/><path d="M63,323L100,368L125,301Z" fill="#c1e7c3" stroke="#c1e7c3" stroke-width="1.51"/><path d="M26,408L130,478L131,417Z" fill="#b4e1c7" stroke="#b4e1c7" stroke-width="1.51"/><path d="M27,783L111,859L137,820Z" fill="#8fbcc8" stroke="#8fbcc8" stroke-width="1.51"/><path d="M71,1016L77,1076L113,1008Z" fill="#84a1b9" stroke="#84a1b9" stroke-width="1.51"/><path d="M31,297L63,323L125,301Z" fill="#c5e8c6" stroke="#c5e8c6" stroke-width="1.51"/><path d="M71,1016L113,1008L126,950Z" fill="#86a7bd" stroke="#86a7bd" stroke-width="1.51"/><path d="M26,408L26,515L130,478Z" fill="#b2e0cb" stroke="#b2e0cb" stroke-width="1.51"/><path d="M100,368L26,408L131,417Z" fill="#b9e4c6" stroke="#b9e4c6" stroke-width="1.51"/><path d="M73,923L71,1016L126,950Z" fill="#88abc1" stroke="#88abc1" stroke-width="1.51"/><path d="M26,515L63,601L112,586Z" fill="#a7d9d0" stroke="#a7d9d0" stroke-width="1.51"/><path d="M97,135L62,172L128,176Z" fill="#d3eecc" stroke="#d3eecc" stroke-width="1.51"/><path d="M37,-4L64,69L116,44Z" fill="#dcf1d6" stroke="#dcf1d6" stroke-width="1.51"/><path d="M27,896L73,923L111,859Z" fill="#8db4c6" stroke="#8db4c6" stroke-width="1.51"/><path d="M27,783L27,896L111,859Z" fill="#90bac9" stroke="#90bac9" stroke-width="1.51"/><path d="M64,69L48,134L97,135Z" fill="#d8efd1" stroke="#d8efd1" stroke-width="1.51"/><path d="M63,323L26,408L100,368Z" fill="#bee6c6" stroke="#bee6c6" stroke-width="1.51"/><path d="M48,134L62,172L97,135Z" fill="#d5efcf" stroke="#d5efcf" stroke-width="1.51"/><path d="M77,1076L-23,1124L98,1120Z" fill="#8298b1" stroke="#8298b1" stroke-width="1.51"/><path d="M-9,798L27,896L27,783Z" fill="#94bdcd" stroke="#94bdcd" stroke-width="1.51"/><path d="M-27,180L31,297L62,172Z" fill="#d2eece" stroke="#d2eece" stroke-width="1.51"/><path d="M-15,-108L37,-4L66,-114Z" fill="#e7f6e1" stroke="#e7f6e1" stroke-width="1.51"/><path d="M-21,946L71,1016L73,923Z" fill="#8bacc4" stroke="#8bacc4" stroke-width="1.51"/><path d="M27,896L-21,946L73,923Z" fill="#8db1c7" stroke="#8db1c7" stroke-width="1.51"/><path d="M71,1016L-46,1028L77,1076Z" fill="#87a1bb" stroke="#87a1bb" stroke-width="1.51"/><path d="M-46,1028L-23,1124L77,1076Z" fill="#879db8" stroke="#879db8" stroke-width="1.51"/><path d="M-28,637L42,730L52,628Z" fill="#a0d2d7" stroke="#a0d2d7" stroke-width="1.51"/><path d="M-29,346L26,408L63,323Z" fill="#c2e7c9" stroke="#c2e7c9" stroke-width="1.51"/><path d="M26,515L-37,554L63,601Z" fill="#abdbd3" stroke="#abdbd3" stroke-width="1.51"/><path d="M-21,946L-46,1028L71,1016Z" fill="#8ca8c3" stroke="#8ca8c3" stroke-width="1.51"/><path d="M31,297L-29,346L63,323Z" fill="#c6e9c9" stroke="#c6e9c9" stroke-width="1.51"/><path d="M37,-4L-53,39L64,69Z" fill="#e0f3da" stroke="#e0f3da" stroke-width="1.51"/><path d="M-15,131L48,134L64,69Z" fill="#daf1d4" stroke="#daf1d4" stroke-width="1.51"/><path d="M-53,39L-15,131L64,69Z" fill="#def2d8" stroke="#def2d8" stroke-width="1.51"/><path d="M-27,180L-42,292L31,297Z" fill="#d0edce" stroke="#d0edce" stroke-width="1.51"/><path d="M-28,637L52,628L63,601Z" fill="#a4d6d5" stroke="#a4d6d5" stroke-width="1.51"/><path d="M-37,554L-28,637L63,601Z" fill="#a8d8d6" stroke="#a8d8d6" stroke-width="1.51"/><path d="M48,134L-27,180L62,172Z" fill="#d7f0d1" stroke="#d7f0d1" stroke-width="1.51"/><path d="M-41,418L-47,508L26,515Z" fill="#b5e2d1" stroke="#b5e2d1" stroke-width="1.51"/><path d="M-41,418L26,515L26,408Z" fill="#b8e3ce" stroke="#b8e3ce" stroke-width="1.51"/><path d="M-15,-108L-53,-18L37,-4Z" fill="#e7f6e1" stroke="#e7f6e1" stroke-width="1.51"/><path d="M-28,637L-24,751L42,730Z" fill="#9fcdd6" stroke="#9fcdd6" stroke-width="1.51"/><path d="M-15,131L-27,180L48,134Z" fill="#daf1d4" stroke="#daf1d4" stroke-width="1.51"/><path d="M-9,798L-30,902L27,896Z" fill="#93b8cc" stroke="#93b8cc" stroke-width="1.51"/><path d="M-24,751L27,783L42,730Z" fill="#99c6d2" stroke="#99c6d2" stroke-width="1.51"/><path d="M-53,-18L-53,39L37,-4Z" fill="#e4f5df" stroke="#e4f5df" stroke-width="1.51"/><path d="M-28,637L-78,674L-24,751Z" fill="#a3d1da" stroke="#a3d1da" stroke-width="1.51"/><path d="M-29,346L-41,418L26,408Z" fill="#c1e7cd" stroke="#c1e7cd" stroke-width="1.51"/><path d="M-30,902L-21,946L27,896Z" fill="#90b3ca" stroke="#90b3ca" stroke-width="1.51"/><path d="M-42,292L-29,346L31,297Z" fill="#caebcc" stroke="#caebcc" stroke-width="1.51"/><path d="M-47,508L-37,554L26,515Z" fill="#b1dfd3" stroke="#b1dfd3" stroke-width="1.51"/><path d="M-24,751L-9,798L27,783Z" fill="#98c4d1" stroke="#98c4d1" stroke-width="1.51"/><path d="M-77,189L-100,252L-42,292Z" fill="#d6efd3" stroke="#d6efd3" stroke-width="1.51"/><path d="M-101,809L-96,898L-30,902Z" fill="#98bad1" stroke="#98bad1" stroke-width="1.51"/><path d="M-37,554L-73,586L-28,637Z" fill="#acdad9" stroke="#acdad9" stroke-width="1.51"/><path d="M-77,189L-42,292L-27,180Z" fill="#d7f0d2" stroke="#d7f0d2" stroke-width="1.51"/><path d="M-78,674L-80,722L-24,751Z" fill="#a2ced9" stroke="#a2ced9" stroke-width="1.51"/><path d="M-46,1028L-80,1104L-23,1124Z" fill="#8a9dba" stroke="#8a9dba" stroke-width="1.51"/><path d="M-53,39L-118,120L-15,131Z" fill="#e2f4db" stroke="#e2f4db" stroke-width="1.51"/><path d="M-118,-95L-53,-18L-15,-108Z" fill="#edf8e7" stroke="#edf8e7" stroke-width="1.51"/><path d="M-24,751L-101,809L-9,798Z" fill="#9bc4d3" stroke="#9bc4d3" stroke-width="1.51"/><path d="M-101,809L-30,902L-9,798Z" fill="#97bed1" stroke="#97bed1" stroke-width="1.51"/><path d="M-73,411L-41,418L-29,346Z" fill="#c3e8cf" stroke="#c3e8cf" stroke-width="1.51"/><path d="M-118,967L-46,1028L-21,946Z" fill="#91acc9" stroke="#91acc9" stroke-width="1.51"/><path d="M-77,189L-27,180L-15,131Z" fill="#dcf1d5" stroke="#dcf1d5" stroke-width="1.51"/><path d="M-118,120L-77,189L-15,131Z" fill="#dff3d8" stroke="#dff3d8" stroke-width="1.51"/><path d="M-73,411L-116,487L-47,508Z" fill="#bce4d4" stroke="#bce4d4" stroke-width="1.51"/><path d="M-73,411L-47,508L-41,418Z" fill="#bde5d2" stroke="#bde5d2" stroke-width="1.51"/><path d="M-80,722L-101,809L-24,751Z" fill="#9fc8d7" stroke="#9fc8d7" stroke-width="1.51"/><path d="M-30,902L-96,898L-21,946Z" fill="#93b4cc" stroke="#93b4cc" stroke-width="1.51"/><path d="M-96,898L-118,967L-21,946Z" fill="#94b2cd" stroke="#94b2cd" stroke-width="1.51"/><path d="M-118,-95L-123,-43L-53,-18Z" fill="#eef9e8" stroke="#eef9e8" stroke-width="1.51"/><path d="M-42,292L-107,325L-29,346Z" fill="#cdecce" stroke="#cdecce" stroke-width="1.51"/><path d="M-107,325L-73,411L-29,346Z" fill="#c8eacf" stroke="#c8eacf" stroke-width="1.51"/><path d="M-73,586L-78,674L-28,637Z" fill="#a9d7dc" stroke="#a9d7dc" stroke-width="1.51"/><path d="M-108,1038L-80,1104L-46,1028Z" fill="#8da2c0" stroke="#8da2c0" stroke-width="1.51"/><path d="M-118,967L-108,1038L-46,1028Z" fill="#91a9c7" stroke="#91a9c7" stroke-width="1.51"/><path d="M-47,508L-73,586L-37,554Z" fill="#b1ddd7" stroke="#b1ddd7" stroke-width="1.51"/><path d="M-128,41L-118,120L-53,39Z" fill="#e6f6e0" stroke="#e6f6e0" stroke-width="1.51"/><path d="M-116,487L-73,586L-47,508Z" fill="#b5e1d7" stroke="#b5e1d7" stroke-width="1.51"/><path d="M-100,252L-107,325L-42,292Z" fill="#d2edd1" stroke="#d2edd1" stroke-width="1.51"/><path d="M-128,41L-53,39L-53,-18Z" fill="#e7f6e1" stroke="#e7f6e1" stroke-width="1.51"/><path d="M-123,-43L-128,41L-53,-18Z" fill="#ebf8e5" stroke="#ebf8e5" stroke-width="1.51"/><path d="M-116,487L-78,674L-73,586Z" fill="#b0dcdb" stroke="#b0dcdb" stroke-width="1.51"/><path d="M-107,325L-116,487L-73,411Z" fill="#c4e8d3" stroke="#c4e8d3" stroke-width="1.51"/><path d="M-118,120L-100,252L-77,189Z" fill="#def2d7" stroke="#def2d7" stroke-width="1.51"/><path d="M-101,809L-80,722L-78,674Z" fill="#a2ccd9" stroke="#a2ccd9" stroke-width="1.51"/><path d="M-116,487L-101,809L-78,674Z" fill="#a9d6df" stroke="#a9d6df" stroke-width="1.51"/><path d="M-101,809L-118,967L-96,898Z" fill="#98b8d1" stroke="#98b8d1" stroke-width="1.51"/><path d="M-116,487L-118,967L-101,809Z" fill="#a2cada" stroke="#a2cada" stroke-width="1.51"/><path d="M-118,120L-107,325L-100,252Z" fill="#daf1d6" stroke="#daf1d6" stroke-width="1.51"/><path d="M-118,120L-116,487L-107,325Z" fill="#d2eed2" stroke="#d2eed2" stroke-width="1.51"/><path d="M-118,120L-128,41L-116,487Z" fill="#ddf2d7" stroke="#ddf2d7" stroke-width="1.51"/></svg>